<svg width="35" height="35" viewBox="0 0 35 35" fill="none" xmlns="http://www.w3.org/2000/svg">
<rect x="-109" y="-7" width="149" height="48" rx="15" fill="#868686"/>
<path d="M6.5625 30.625C5.96094 30.625 5.44596 30.4108 5.01758 29.9824C4.58919 29.554 4.375 29.0391 4.375 28.4375V6.5625C4.375 5.96094 4.58919 5.44596 5.01758 5.01758C5.44596 4.58919 5.96094 4.375 6.5625 4.375H28.4375C29.0391 4.375 29.554 4.58919 29.9824 5.01758C30.4108 5.44596 30.625 5.96094 30.625 6.5625V18.5573C30.2847 18.3628 29.9262 18.2049 29.5495 18.0833C29.1727 17.9618 28.8021 17.8646 28.4375 17.7917V6.5625H6.5625V28.4375H17.8281C17.9253 28.8264 18.035 29.2052 18.1571 29.574C18.2792 29.9428 18.4247 30.2931 18.5937 30.625H6.5625ZM6.5625 26.724V28.4375V6.5625V17.7917V17.6458V26.724ZM10.2083 24.7917H17.901C17.9983 24.4028 18.1076 24.026 18.2292 23.6615C18.3507 23.2969 18.5087 22.9444 18.7031 22.6042H10.2083V24.7917ZM10.2083 18.5938H22.75C23.0903 18.4236 23.4184 18.2839 23.7344 18.1745C24.0503 18.0651 24.4028 17.9618 24.7917 17.8646V16.4063H10.2083V18.5938ZM10.2083 12.3958H24.7917V10.2083H10.2083V12.3958ZM26.7057 33.5052C24.822 33.5052 23.2118 32.8307 21.875 31.4818C20.5382 30.1328 19.8698 28.5347 19.8698 26.6875C19.8698 24.7811 20.5381 23.1561 21.8746 21.8124C23.2112 20.4687 24.8276 19.7969 26.724 19.7969C28.5955 19.7969 30.2057 20.4687 31.5547 21.8124C32.9036 23.1561 33.5781 24.7811 33.5781 26.6875C33.5781 28.5347 32.9036 30.1328 31.5547 31.4818C30.2057 32.8307 28.5894 33.5052 26.7057 33.5052ZM26.1771 31.3177H27.3802V27.3073H31.3906V26.1042H27.3802V22.0938H26.1771V26.1042H22.1667V27.3073H26.1771V31.3177Z" fill="#CFCFCF"/>
</svg>
