<svg width="35" height="35" viewBox="0 0 35 35" fill="none" xmlns="http://www.w3.org/2000/svg">
<g clip-path="url(#clip0_47_61)">
<path d="M6.5625 30.625C5.97917 30.625 5.46875 30.4062 5.03125 29.9688C4.59375 29.5312 4.375 29.0208 4.375 28.4375V6.5625C4.375 5.97917 4.59375 5.46875 5.03125 5.03125C5.46875 4.59375 5.97917 4.375 6.5625 4.375H28.4375C29.0208 4.375 29.5312 4.59375 29.9688 5.03125C30.4062 5.46875 30.625 5.97917 30.625 6.5625V28.4375C30.625 29.0208 30.4062 29.5312 29.9688 29.9688C29.5312 30.4062 29.0208 30.625 28.4375 30.625H6.5625ZM6.5625 28.4375H28.4375V23.4792H23.1146C22.4826 24.4514 21.6623 25.1988 20.6536 25.7214C19.645 26.2439 18.5937 26.5052 17.5 26.5052C16.4062 26.5052 15.355 26.2439 14.3464 25.7214C13.3377 25.1988 12.5174 24.4514 11.8854 23.4792H6.5625V28.4375ZM17.509 24.3177C18.4995 24.3177 19.3958 24.0321 20.1979 23.4609C21 22.8898 21.6806 22.1667 22.2396 21.2917H28.4375V6.5625H6.5625V21.2917H12.7604C13.3194 22.1667 14.003 22.8898 14.8111 23.4609C15.6191 24.0321 16.5184 24.3177 17.509 24.3177Z" fill="#CFCFCF"/>
</g>
<defs>
<clipPath id="clip0_47_61">
<rect width="35" height="35" fill="white"/>
</clipPath>
</defs>
</svg>
