<svg width="35" height="35" viewBox="0 0 35 35" fill="none" xmlns="http://www.w3.org/2000/svg">
<rect x="-181" y="-7" width="228" height="48" rx="15" fill="#868686"/>
<path d="M5.83333 27.7083V25.5208H8.74999V14.4375C8.74999 12.3958 9.35156 10.5668 10.5547 8.95053C11.7578 7.33421 13.3437 6.31945 15.3125 5.90626V5.10417C15.3125 4.49653 15.5252 3.98004 15.9505 3.55469C16.3759 3.12935 16.8924 2.91667 17.5 2.91667C18.1076 2.91667 18.6241 3.12935 19.0495 3.55469C19.4748 3.98004 19.6875 4.49653 19.6875 5.10417V5.90626C21.6562 6.31945 23.2422 7.33421 24.4453 8.95053C25.6484 10.5668 26.25 12.3958 26.25 14.4375V25.5208H29.1667V27.7083H5.83333ZM17.5 32.0833C16.6979 32.0833 16.0113 31.7977 15.4401 31.2266C14.8689 30.6554 14.5833 29.9688 14.5833 29.1667H20.4167C20.4167 29.9688 20.1311 30.6554 19.5599 31.2266C18.9887 31.7977 18.3021 32.0833 17.5 32.0833ZM10.9375 25.5208H24.0625V14.4375C24.0625 12.6146 23.4245 11.0651 22.1484 9.78907C20.8724 8.51303 19.3229 7.875 17.5 7.875C15.6771 7.875 14.1276 8.51303 12.8516 9.78907C11.5755 11.0651 10.9375 12.6146 10.9375 14.4375V25.5208Z" fill="#CFCFCF"/>
</svg>
