<svg width="35" height="35" viewBox="0 0 35 35" fill="none" xmlns="http://www.w3.org/2000/svg">
<rect x="-181" y="-7" width="228" height="48" rx="15" fill="#868686"/>
<path d="M9.51562 30.625C8.91406 30.625 8.39908 30.4108 7.9707 29.9824C7.54231 29.554 7.32812 29.0391 7.32812 28.4375V7.65625H5.83333V5.46875H12.6875V4.375H22.3125V5.46875H29.1667V7.65625H27.6719V28.4375C27.6719 29.0208 27.4531 29.5312 27.0156 29.9688C26.5781 30.4062 26.0677 30.625 25.4844 30.625H9.51562ZM25.4844 7.65625H9.51562V28.4375H25.4844V7.65625ZM13.3802 25.3021H15.5677V10.7552H13.3802V25.3021ZM19.4323 25.3021H21.6198V10.7552H19.4323V25.3021Z" fill="#CFCFCF"/>
</svg>
