<svg width="40" height="40" viewBox="0 0 40 40" fill="none" xmlns="http://www.w3.org/2000/svg">
<g clip-path="url(#clip0_47_55)">
<path d="M7.5 39.5C6.83333 39.5 6.25 39.25 5.75 38.75C5.25 38.25 5 37.6667 5 37V12C5 11.3333 5.25 10.75 5.75 10.25C6.25 9.75001 6.83333 9.50001 7.5 9.50001H24.375L21.875 12H7.5V37H32.5V22.5L35 20V37C35 37.6667 34.75 38.25 34.25 38.75C33.75 39.25 33.1667 39.5 32.5 39.5H7.5ZM27.5833 9.83334L29.375 11.5833L17.5 23.4167V27H21.0417L32.9583 15.0833L34.7083 16.8333L22.0833 29.5H15V22.4167L27.5833 9.83334ZM34.7083 16.8333L27.5833 9.83334L31.75 5.66668C32.2222 5.19445 32.8099 4.95834 33.513 4.95834C34.216 4.95834 34.8089 5.20834 35.2917 5.70834L38.7917 9.25001C39.2639 9.75001 39.5 10.3399 39.5 11.0197C39.5 11.6995 39.25 12.2762 38.75 12.75L34.7083 16.8333Z" fill="#CFCFCF"/>
</g>
<defs>
<clipPath id="clip0_47_55">
<rect width="40" height="40" fill="white"/>
</clipPath>
</defs>
</svg>
