<svg width="35" height="35" viewBox="0 0 35 35" fill="none" xmlns="http://www.w3.org/2000/svg">
<rect x="-181" y="-7" width="228" height="48" rx="15" fill="#C0AE50"/>
<path d="M17.5 32.0833C16.6736 32.0833 15.9748 31.7977 15.4036 31.2266C14.8325 30.6554 14.5469 29.9566 14.5469 29.1302H20.4531C20.4531 29.9566 20.1675 30.6554 19.5964 31.2266C19.0252 31.7977 18.3264 32.0833 17.5 32.0833ZM11.5938 26.8698V24.6823H23.4062V26.8698H11.5938ZM11.776 22.4583C10.1719 21.4132 8.90191 20.1068 7.96615 18.5391C7.03038 16.9714 6.5625 15.2031 6.5625 13.2344C6.5625 10.2691 7.6441 7.70486 9.80729 5.54167C11.9705 3.37847 14.5347 2.29688 17.5 2.29688C20.4653 2.29688 23.0295 3.37847 25.1927 5.54167C27.3559 7.70486 28.4375 10.2691 28.4375 13.2344C28.4375 15.2031 27.9757 16.9714 27.0521 18.5391C26.1285 20.1068 24.8524 21.4132 23.224 22.4583H11.776ZM12.5781 20.2708H22.4583C23.625 19.4931 24.5486 18.4844 25.2292 17.2448C25.9097 16.0052 26.25 14.6684 26.25 13.2344C26.25 10.8281 25.3932 8.76823 23.6797 7.05469C21.9661 5.34115 19.9062 4.48438 17.5 4.48438C15.0938 4.48438 13.0339 5.34115 11.3203 7.05469C9.60677 8.76823 8.75 10.8281 8.75 13.2344C8.75 14.6684 9.09028 16.0052 9.77083 17.2448C10.4514 18.4844 11.3872 19.4931 12.5781 20.2708Z" fill="#CFCFCF"/>
</svg>
