<svg width="100" height="30" viewBox="0 0 100 30" fill="none" xmlns="http://www.w3.org/2000/svg">
<mask id="path-1-inside-1_2_5" fill="white">
<path d="M-121 -15H1245V45H-121V-15Z"/>
</mask>
<path d="M-121 -15H1245V45H-121V-15Z" fill="#202124"/>
<path d="M16.2955 7.45455V22H14.5909L6.66477 10.5795H6.52273V22H4.76136V7.45455H6.46591L14.4205 18.9034H14.5625V7.45455H16.2955ZM24.0245 22.2273C23.0397 22.2273 22.1755 21.9929 21.4322 21.5241C20.6935 21.0554 20.1159 20.3996 19.6992 19.5568C19.2873 18.714 19.0813 17.7292 19.0813 16.6023C19.0813 15.4659 19.2873 14.474 19.6992 13.6264C20.1159 12.7789 20.6935 12.1207 21.4322 11.652C22.1755 11.1832 23.0397 10.9489 24.0245 10.9489C25.0094 10.9489 25.8711 11.1832 26.6097 11.652C27.3531 12.1207 27.9308 12.7789 28.3427 13.6264C28.7594 14.474 28.9677 15.4659 28.9677 16.6023C28.9677 17.7292 28.7594 18.714 28.3427 19.5568C27.9308 20.3996 27.3531 21.0554 26.6097 21.5241C25.8711 21.9929 25.0094 22.2273 24.0245 22.2273ZM24.0245 20.7216C24.7726 20.7216 25.3881 20.5298 25.8711 20.1463C26.354 19.7628 26.7115 19.2585 26.9435 18.6335C27.1755 18.0085 27.2915 17.3314 27.2915 16.6023C27.2915 15.8731 27.1755 15.1937 26.9435 14.5639C26.7115 13.9342 26.354 13.4252 25.8711 13.0369C25.3881 12.6487 24.7726 12.4545 24.0245 12.4545C23.2764 12.4545 22.6609 12.6487 22.1779 13.0369C21.695 13.4252 21.3375 13.9342 21.1055 14.5639C20.8735 15.1937 20.7575 15.8731 20.7575 16.6023C20.7575 17.3314 20.8735 18.0085 21.1055 18.6335C21.3375 19.2585 21.695 19.7628 22.1779 20.1463C22.6609 20.5298 23.2764 20.7216 24.0245 20.7216ZM36.2706 11.0909V12.5114H30.6172V11.0909H36.2706ZM32.2649 8.47727H33.9411V18.875C33.9411 19.3485 34.0097 19.7036 34.147 19.9403C34.2891 20.1723 34.469 20.3286 34.6868 20.4091C34.9093 20.4848 35.1437 20.5227 35.3899 20.5227C35.5746 20.5227 35.7261 20.5133 35.8445 20.4943C35.9628 20.4706 36.0575 20.4517 36.1286 20.4375L36.4695 21.9432C36.3558 21.9858 36.1972 22.0284 35.9936 22.071C35.79 22.1184 35.532 22.142 35.2195 22.142C34.746 22.142 34.282 22.0402 33.8274 21.8366C33.3776 21.633 33.0036 21.3229 32.7053 20.9062C32.4117 20.4896 32.2649 19.964 32.2649 19.3295V8.47727ZM43.2486 22.2273C42.1974 22.2273 41.2907 21.9953 40.5284 21.5312C39.7708 21.0625 39.1861 20.4091 38.7741 19.571C38.367 18.7282 38.1634 17.7481 38.1634 16.6307C38.1634 15.5133 38.367 14.5284 38.7741 13.6761C39.1861 12.8191 39.759 12.1515 40.4929 11.6733C41.2315 11.1903 42.0933 10.9489 43.0781 10.9489C43.6463 10.9489 44.2074 11.0436 44.7614 11.233C45.3153 11.4223 45.8196 11.7301 46.2741 12.1562C46.7287 12.5777 47.0909 13.1364 47.3608 13.8324C47.6307 14.5284 47.7656 15.3854 47.7656 16.4034V17.1136H39.3565V15.6648H46.0611C46.0611 15.0492 45.938 14.5 45.6918 14.017C45.4503 13.5341 45.1046 13.1529 44.6548 12.8736C44.2098 12.5942 43.6842 12.4545 43.0781 12.4545C42.4105 12.4545 41.8329 12.6203 41.3452 12.9517C40.8622 13.2784 40.4905 13.7045 40.2301 14.2301C39.9697 14.7557 39.8395 15.3191 39.8395 15.9205V16.8864C39.8395 17.7102 39.9815 18.4086 40.2656 18.9815C40.5545 19.5497 40.9545 19.983 41.4659 20.2812C41.9773 20.5748 42.5715 20.7216 43.2486 20.7216C43.6889 20.7216 44.0866 20.66 44.4418 20.5369C44.8016 20.4091 45.1117 20.2197 45.3722 19.9688C45.6326 19.7131 45.8338 19.3958 45.9759 19.017L47.5952 19.4716C47.4247 20.0208 47.1383 20.5038 46.7358 20.9205C46.3333 21.3324 45.8362 21.6544 45.2443 21.8864C44.6525 22.1136 43.9872 22.2273 43.2486 22.2273ZM54.4347 22.2273C53.5256 22.2273 52.723 21.9976 52.027 21.5384C51.331 21.0743 50.7865 20.4209 50.3935 19.5781C50.0005 18.7306 49.804 17.7292 49.804 16.5739C49.804 15.428 50.0005 14.4337 50.3935 13.5909C50.7865 12.7481 51.3333 12.0971 52.0341 11.6378C52.7348 11.1785 53.5445 10.9489 54.4631 10.9489C55.1733 10.9489 55.7344 11.0672 56.1463 11.304C56.563 11.536 56.8802 11.8011 57.098 12.0994C57.3205 12.393 57.4934 12.6345 57.6165 12.8239H57.7585V7.45455H59.4347V22H57.8153V20.3239H57.6165C57.4934 20.5227 57.3182 20.7737 57.0909 21.0767C56.8636 21.375 56.5393 21.6425 56.1179 21.8793C55.6965 22.1113 55.1354 22.2273 54.4347 22.2273ZM54.6619 20.7216C55.3343 20.7216 55.9025 20.5464 56.3665 20.196C56.8305 19.8409 57.1832 19.3509 57.4247 18.7259C57.6662 18.0961 57.7869 17.3693 57.7869 16.5455C57.7869 15.7311 57.6686 15.0185 57.4318 14.4077C57.1951 13.7921 56.8447 13.3139 56.3807 12.973C55.9167 12.6274 55.3438 12.4545 54.6619 12.4545C53.9517 12.4545 53.3598 12.6368 52.8864 13.0014C52.4176 13.3613 52.0649 13.8513 51.8281 14.4716C51.5961 15.0871 51.4801 15.7784 51.4801 16.5455C51.4801 17.322 51.5985 18.0275 51.8352 18.6619C52.0767 19.2917 52.4318 19.7936 52.9006 20.1676C53.3741 20.5369 53.9612 20.7216 54.6619 20.7216ZM62.9645 22V7.45455H67.8793C69.0204 7.45455 69.9531 7.66051 70.6776 8.07244C71.4067 8.47964 71.9465 9.03125 72.2969 9.72727C72.6473 10.4233 72.8224 11.1998 72.8224 12.0568C72.8224 12.9138 72.6473 13.6927 72.2969 14.3935C71.9512 15.0942 71.4162 15.6529 70.6918 16.0696C69.9673 16.4815 69.0393 16.6875 67.9077 16.6875H64.3849V15.125H67.8509C68.6321 15.125 69.2595 14.9901 69.733 14.7202C70.2064 14.4503 70.5497 14.0857 70.7628 13.6264C70.9806 13.1624 71.0895 12.6392 71.0895 12.0568C71.0895 11.4744 70.9806 10.9536 70.7628 10.4943C70.5497 10.035 70.2041 9.67519 69.7259 9.41477C69.2476 9.14962 68.6132 9.01705 67.8224 9.01705H64.7259V22H62.9645ZM78.6428 22.2557C77.9515 22.2557 77.3241 22.1255 76.7607 21.8651C76.1972 21.5999 75.7498 21.2188 75.4183 20.7216C75.0869 20.2197 74.9212 19.6136 74.9212 18.9034C74.9212 18.2784 75.0443 17.7718 75.2905 17.3835C75.5367 16.9905 75.8658 16.6828 76.2777 16.4602C76.6896 16.2377 77.1442 16.072 77.6413 15.9631C78.1432 15.8494 78.6475 15.7595 79.1541 15.6932C79.817 15.608 80.3544 15.544 80.7663 15.5014C81.183 15.4541 81.486 15.3759 81.6754 15.267C81.8696 15.1581 81.9666 14.9687 81.9666 14.6989V14.642C81.9666 13.9413 81.7749 13.3968 81.3913 13.0085C81.0125 12.6203 80.4373 12.4261 79.6655 12.4261C78.8653 12.4261 78.2379 12.6013 77.7834 12.9517C77.3288 13.3021 77.0092 13.6761 76.8246 14.0739L75.2337 13.5057C75.5178 12.8428 75.8965 12.3267 76.37 11.9574C76.8482 11.5833 77.3691 11.3229 77.9325 11.1761C78.5007 11.0246 79.0594 10.9489 79.6087 10.9489C79.959 10.9489 80.3615 10.9915 80.8161 11.0767C81.2753 11.1572 81.718 11.3253 82.1442 11.581C82.575 11.8366 82.9325 12.2225 83.2166 12.7386C83.5007 13.2547 83.6428 13.946 83.6428 14.8125V22H81.9666V20.5227H81.8814C81.7678 20.7595 81.5784 21.0128 81.3132 21.2827C81.0481 21.5526 80.6953 21.7822 80.255 21.9716C79.8146 22.161 79.2772 22.2557 78.6428 22.2557ZM78.8984 20.75C79.5613 20.75 80.12 20.6198 80.5746 20.3594C81.0339 20.099 81.3795 19.7628 81.6115 19.3509C81.8482 18.9389 81.9666 18.5057 81.9666 18.0511V16.517C81.8956 16.6023 81.7393 16.6804 81.4979 16.7514C81.2611 16.8177 80.9865 16.8769 80.674 16.929C80.3662 16.9763 80.0656 17.0189 79.772 17.0568C79.4832 17.09 79.2488 17.1184 79.0689 17.142C78.6333 17.1989 78.2261 17.2912 77.8473 17.419C77.4732 17.5421 77.1702 17.7292 76.9382 17.9801C76.7109 18.2263 76.5973 18.5625 76.5973 18.9886C76.5973 19.571 76.8127 20.0114 77.2436 20.3097C77.6792 20.6032 78.2308 20.75 78.8984 20.75ZM90.8214 22.2273C89.9123 22.2273 89.1097 21.9976 88.4137 21.5384C87.7177 21.0743 87.1732 20.4209 86.7802 19.5781C86.3872 18.7306 86.1907 17.7292 86.1907 16.5739C86.1907 15.428 86.3872 14.4337 86.7802 13.5909C87.1732 12.7481 87.7201 12.0971 88.4208 11.6378C89.1216 11.1785 89.9312 10.9489 90.8498 10.9489C91.56 10.9489 92.1211 11.0672 92.533 11.304C92.9497 11.536 93.2669 11.8011 93.4847 12.0994C93.7073 12.393 93.8801 12.6345 94.0032 12.8239H94.1452V7.45455H95.8214V22H94.2021V20.3239H94.0032C93.8801 20.5227 93.7049 20.7737 93.4776 21.0767C93.2504 21.375 92.926 21.6425 92.5046 21.8793C92.0832 22.1113 91.5221 22.2273 90.8214 22.2273ZM91.0487 20.7216C91.721 20.7216 92.2892 20.5464 92.7532 20.196C93.2172 19.8409 93.57 19.3509 93.8114 18.7259C94.0529 18.0961 94.1737 17.3693 94.1737 16.5455C94.1737 15.7311 94.0553 15.0185 93.8185 14.4077C93.5818 13.7921 93.2314 13.3139 92.7674 12.973C92.3034 12.6274 91.7305 12.4545 91.0487 12.4545C90.3384 12.4545 89.7466 12.6368 89.2731 13.0014C88.8043 13.3613 88.4516 13.8513 88.2148 14.4716C87.9828 15.0871 87.8668 15.7784 87.8668 16.5455C87.8668 17.322 87.9852 18.0275 88.2219 18.6619C88.4634 19.2917 88.8185 19.7936 89.2873 20.1676C89.7608 20.5369 90.3479 20.7216 91.0487 20.7216Z" fill="#CFCFCF"/>
<path d="M1245 44H-121V46H1245V44Z" fill="#525355" mask="url(#path-1-inside-1_2_5)"/>
</svg>
